<svg xmlns="http://www.w3.org/2000/svg" width="16" height="16" viewBox="0 0 16 16"><path fill="#2e3436" fill-rule="evenodd" d="M2.5 1h11.0a1.5 1.5 0 0 1 1.5 1.5v11.0a1.5 1.5 0 0 1 -1.5 1.5h-11.0a1.5 1.5 0 0 1 -1.5 -1.5v-11.0a1.5 1.5 0 0 1 1.5 -1.5zM2.8 2.5h10.4a0.3 0.3 0 0 1 0.3 0.3v10.4a0.3 0.3 0 0 1 -0.3 0.3h-10.4a0.3 0.3 0 0 1 -0.3 -0.3v-10.4a0.3 0.3 0 0 1 0.3 -0.3z"/><rect fill="#2e3436" x="3" y="3.5" width="9" height="2"/><rect fill="#2e3436" opacity="0.6" x="3" y="7" width="5" height="2"/><rect fill="#2e3436" opacity="0.35" x="3" y="10.5" width="7" height="2"/></svg>
