<svg xmlns="http://www.w3.org/2000/svg" width="16" height="16" viewBox="0 0 16 16"><rect fill="#2e3436" x="1.5" y="1.5" width="2" height="1.4"/><rect fill="#2e3436" x="1.5" y="13.1" width="2" height="1.4"/><rect fill="#2e3436" x="5.1" y="1.5" width="2" height="1.4"/><rect fill="#2e3436" x="5.1" y="13.1" width="2" height="1.4"/><rect fill="#2e3436" x="8.7" y="1.5" width="2" height="1.4"/><rect fill="#2e3436" x="8.7" y="13.1" width="2" height="1.4"/><rect fill="#2e3436" x="12.3" y="1.5" width="2" height="1.4"/><rect fill="#2e3436" x="12.3" y="13.1" width="2" height="1.4"/><rect fill="#2e3436" x="1.5" y="4.5" width="1.4" height="2"/><rect fill="#2e3436" x="13.1" y="4.5" width="1.4" height="2"/><rect fill="#2e3436" x="1.5" y="8.1" width="1.4" height="2"/><rect fill="#2e3436" x="13.1" y="8.1" width="1.4" height="2"/><rect fill="#2e3436" x="1.5" y="11.7" width="1.4" height="1.4"/><rect fill="#2e3436" x="13.1" y="11.7" width="1.4" height="1.4"/><rect fill="#2e3436" opacity="0.45" x="4.5" y="4.5" width="7" height="7"/></svg>
